<?xml version="1.0" standalone="no"?>
<!DOCTYPE svg PUBLIC "-//W3C//DTD SVG 20010904//EN"
 "http://www.w3.org/TR/2001/REC-SVG-20010904/DTD/svg10.dtd">
<svg version="1.0" xmlns="http://www.w3.org/2000/svg"
 width="842.000000pt" height="842.000000pt" viewBox="0 0 842.000000 842.000000"
 preserveAspectRatio="xMidYMid meet">
<metadata>
Created by potrace 1.14, written by Peter Selinger 2001-2017
</metadata>
<g transform="translate(0.000000,842.000000) scale(0.100000,-0.100000)"
fill="#000000" stroke="none">
<path d="M7899 6909 c-68 -34 -152 -74 -186 -90 -135 -62 -226 -104 -333 -152
-52 -23 -104 -47 -245 -113 -33 -15 -62 -28 -65 -29 -3 -1 -25 -11 -50 -23
-49 -23 -90 -28 -90 -11 0 18 -67 75 -127 107 -154 81 -341 108 -463 67 -76
-26 -140 -55 -158 -72 -6 -6 -21 -15 -32 -18 -11 -3 -20 -11 -20 -16 0 -5 -6
-9 -13 -9 -7 0 -31 -18 -52 -40 -21 -22 -45 -40 -53 -40 -8 0 -28 15 -46 34
-47 52 -130 103 -204 127 -53 17 -97 22 -211 24 -141 2 -179 -3 -256 -36 -16
-7 -32 -13 -35 -13 -30 -5 -196 -121 -259 -180 -41 -39 -110 -137 -141 -201
-26 -55 -27 -55 -87 -24 -52 27 -142 59 -188 65 -11 1 -49 7 -85 12 -67 10
-191 8 -245 -3 -70 -14 -198 -67 -223 -92 -7 -7 -17 -13 -21 -13 -4 0 -34 -23
-66 -51 l-59 -51 -29 57 c-71 142 -286 296 -507 364 -91 28 -119 32 -255 36
-117 3 -217 -10 -283 -37 -44 -18 -73 -9 -127 39 -120 109 -205 137 -410 137
-106 0 -165 -7 -209 -24 -12 -4 -24 -8 -28 -9 -14 -3 -42 -13 -114 -43 -149
-60 -340 -214 -411 -331 -21 -35 -44 -91 -53 -131 -15 -64 -20 -73 -51 -88
-19 -9 -74 -35 -123 -59 -103 -50 -191 -129 -231 -209 -14 -28 -25 -52 -25
-55 0 -3 -7 -19 -16 -36 -8 -17 -13 -36 -11 -42 2 -7 1 -22 -4 -34 -7 -21 -17
-24 -129 -38 -32 -4 -280 -125 -280 -136 0 -5 -5 -9 -11 -9 -25 0 -178 -139
-243 -221 -31 -38 -117 -187 -121 -210 -2 -12 -8 -26 -14 -33 -22 -27 -87
-268 -97 -361 -2 -21 -7 -51 -9 -65 -12 -65 -24 -307 -16 -324 3 -6 5 -24 7
-40 4 -59 14 -122 29 -176 8 -30 18 -66 21 -80 8 -37 91 -203 114 -228 11 -11
20 -25 20 -29 0 -9 82 -95 129 -136 39 -34 142 -101 182 -119 16 -7 29 -16 29
-20 0 -5 6 -8 14 -8 8 0 31 -9 53 -20 21 -11 65 -31 98 -45 87 -37 110 -50
108 -63 -9 -41 -16 -81 -18 -102 -2 -14 -4 -25 -5 -25 -1 0 -3 -9 -4 -20 -10
-74 -18 -123 -31 -185 -6 -27 -18 -125 -19 -149 -1 -18 -8 -25 -26 -28 -101
-15 -161 -59 -206 -151 -40 -81 -44 -163 -12 -234 30 -64 72 -108 158 -164 53
-34 213 -108 255 -118 6 -1 60 -18 120 -38 104 -34 238 -75 274 -83 9 -3 43
-11 76 -20 33 -9 67 -17 75 -19 13 -2 90 -20 205 -47 47 -11 89 -19 129 -25
16 -2 45 -8 65 -13 20 -5 70 -15 111 -21 92 -14 119 -19 145 -24 11 -2 40 -6
65 -9 25 -4 64 -9 87 -12 94 -13 110 -15 158 -20 122 -13 243 -23 365 -30 36
-2 65 -4 65 -5 0 -1 93 -3 208 -3 114 -1 207 0 207 3 0 3 26 5 58 6 54 0 110
6 211 19 89 12 166 60 206 129 29 49 34 74 42 191 9 149 -29 240 -121 287 -22
11 -43 20 -46 20 -3 -1 -4 13 -3 31 5 85 21 278 38 452 3 28 7 77 10 110 3 33
8 85 11 115 3 30 7 75 9 100 2 25 7 74 10 110 14 135 23 228 30 310 6 81 14
163 20 215 2 22 7 72 10 110 3 39 8 87 10 108 3 20 7 65 11 100 3 34 7 78 9
97 2 19 7 69 10 110 10 115 9 114 160 192 22 12 41 20 43 19 1 -1 10 5 18 14
9 8 21 15 29 15 7 0 15 3 17 8 6 14 188 103 205 100 9 -2 17 -11 19 -20 1 -12
42 -189 49 -218 1 -3 5 -23 9 -45 5 -22 14 -65 22 -96 7 -30 16 -66 18 -80 2
-13 5 -24 6 -24 1 0 3 -9 5 -20 1 -11 8 -42 15 -70 6 -27 13 -59 16 -70 2 -11
6 -32 10 -47 3 -15 5 -30 5 -33 0 -2 5 -19 10 -37 5 -18 12 -46 15 -63 2 -16
7 -38 10 -47 3 -9 6 -25 8 -35 5 -23 40 -178 73 -318 14 -60 27 -121 29 -135
3 -14 7 -32 10 -40 3 -8 8 -25 10 -38 3 -13 16 -69 30 -125 14 -56 27 -111 29
-122 11 -48 15 -63 29 -117 8 -31 18 -67 21 -80 7 -31 23 -99 36 -150 5 -24
11 -50 13 -58 1 -8 6 -28 9 -45 4 -16 10 -41 13 -55 12 -51 22 -106 28 -144 4
-21 9 -42 11 -47 3 -4 -14 -17 -38 -27 -94 -42 -118 -202 -66 -437 15 -63 60
-108 155 -152 61 -28 97 -43 114 -48 3 0 15 -4 28 -9 12 -4 34 -9 50 -11 15
-2 27 -4 27 -5 0 -1 11 -3 25 -6 14 -2 39 -7 55 -10 59 -11 132 -14 300 -14
225 1 275 3 275 13 0 5 4 6 9 2 6 -3 38 -1 73 5 35 5 83 12 108 15 25 3 76 12
113 20 38 8 72 14 75 13 4 0 9 1 12 2 3 1 13 3 22 5 9 2 58 13 110 24 51 12
102 23 113 25 11 2 46 12 79 21 32 9 64 18 70 19 48 10 306 95 416 138 41 16
80 31 85 32 6 1 27 10 49 19 21 9 40 17 43 17 2 0 25 10 51 22 26 12 50 21 55
20 4 -1 7 3 7 8 0 6 6 10 13 10 13 0 156 71 244 121 70 40 138 82 143 88 3 3
32 26 65 50 72 53 159 142 181 185 27 52 27 179 0 277 -46 167 -113 270 -201
310 -22 10 -51 15 -65 12 -24 -4 -28 -1 -43 47 -9 29 -17 56 -17 60 0 5 -5 21
-12 37 -6 15 -12 33 -14 40 -1 7 -20 70 -43 140 -94 299 -89 278 -61 270 16
-4 176 68 240 108 8 6 17 10 20 10 12 1 156 97 195 130 153 130 272 299 341
482 13 34 26 72 28 85 3 13 10 41 16 63 22 86 30 277 16 380 -14 104 -38 218
-53 255 -3 8 -7 17 -8 20 -23 61 -34 87 -66 148 -99 191 -267 379 -482 540
-38 28 -74 52 -80 52 -6 0 -6 5 0 13 6 6 36 62 68 122 32 61 71 132 87 158 15
26 28 50 28 52 0 3 13 26 28 52 71 120 117 197 131 224 9 15 43 77 76 136 83
149 87 161 80 210 -7 51 -54 93 -102 93 -17 0 -85 -27 -154 -61z m-594 -1707
c-11 -9 -30 -28 -42 -42 -13 -13 -23 -21 -23 -17 0 10 67 77 77 77 4 0 -1 -8
-12 -18z m314 -94 c35 -53 77 -155 68 -164 -3 -3 -13 19 -22 48 -10 29 -26 65
-36 80 -11 14 -19 31 -19 37 0 6 -3 11 -7 11 -5 0 -16 12 -26 25 -11 16 -13
23 -5 20 8 -3 29 -29 47 -57z m-464 -159 c-4 -12 -8 -27 -9 -33 -6 -30 -29
-86 -36 -86 -12 0 -10 9 31 113 13 32 23 37 14 6z m-6237 -39 c-7 -10 -14 -17
-17 -15 -4 4 18 35 25 35 2 0 -1 -9 -8 -20z m6779 -2 c-3 -8 -6 -5 -6 6 -1 11
2 17 5 13 3 -3 4 -12 1 -19z m-6751 -636 c56 3 62 2 42 -9 -43 -23 -100 -16
-138 18 l-35 31 33 -22 c28 -19 44 -22 98 -18z m6460 13 c-11 -8 -26 -15 -33
-15 -20 0 -21 0 -57 -15 -41 -17 -46 -18 -46 -7 0 5 6 9 13 10 6 0 37 10 67
21 65 24 82 26 56 6z m-2479 -797 c-3 -8 -6 -5 -6 6 -1 11 2 17 5 13 3 -3 4
-12 1 -19z m23 -67 c0 -32 -6 -24 -14 19 -4 25 -3 31 4 20 5 -8 10 -26 10 -39z
m51 -181 c22 -78 38 -144 36 -146 -4 -4 -12 20 -47 141 -11 39 -25 84 -30 101
-11 33 -13 61 -5 52 3 -2 23 -69 46 -148z"/>
</g>
</svg>
